<?xml version="1.0" encoding="utf-8" standalone="no"?>
<!DOCTYPE svg PUBLIC "-//W3C//DTD SVG 1.1//EN"
  "http://www.w3.org/Graphics/SVG/1.1/DTD/svg11.dtd">
<svg xmlns:xlink="http://www.w3.org/1999/xlink" width="864pt" height="432pt" viewBox="0 0 864 432" xmlns="http://www.w3.org/2000/svg" version="1.1">
 <metadata>
  <rdf:RDF xmlns:dc="http://purl.org/dc/elements/1.1/" xmlns:cc="http://creativecommons.org/ns#" xmlns:rdf="http://www.w3.org/1999/02/22-rdf-syntax-ns#">
   <cc:Work>
    <dc:type rdf:resource="http://purl.org/dc/dcmitype/StillImage"/>
    <dc:date>2024-12-15T10:21:00.009971</dc:date>
    <dc:format>image/svg+xml</dc:format>
    <dc:creator>
     <cc:Agent>
      <dc:title>Matplotlib v3.7.2, https://matplotlib.org/</dc:title>
     </cc:Agent>
    </dc:creator>
   </cc:Work>
  </rdf:RDF>
 </metadata>
 <defs>
  <style type="text/css">*{stroke-linejoin: round; stroke-linecap: butt}</style>
 </defs>
 <g id="figure_1">
  <g id="patch_1">
   <path d="M 0 432 
L 864 432 
L 864 0 
L 0 0 
z
" style="fill: #ffffff"/>
  </g>
  <g id="axes_1">
   <g id="patch_2">
    <path d="M 108 384.48 
L 777.6 384.48 
L 777.6 51.84 
L 108 51.84 
z
" style="fill: #ffffff"/>
   </g>
   <g id="matplotlib.axis_1">
    <g id="xtick_1">
     <g id="line2d_1">
      <path d="M 138.436364 384.48 
L 138.436364 51.84 
" clip-path="url(#pd610a1af96)" style="fill: none; stroke: #b0b0b0; stroke-width: 0.8; stroke-linecap: square"/>
     </g>
     <g id="line2d_2">
      <defs>
       <path id="m51e27a65af" d="M 0 0 
L 0 3.5 
" style="stroke: #000000; stroke-width: 0.8"/>
      </defs>
      <g>
       <use xlink:href="#m51e27a65af" x="138.436364" y="384.48" style="stroke: #000000; stroke-width: 0.8"/>
      </g>
     </g>
     <g id="text_1">
      <!-- 2016-12-01 -->
      <g transform="translate(109.378551 399.078438) scale(0.1 -0.1)">
       <defs>
        <path id="DejaVuSans-32" d="M 1228 531 
L 3431 531 
L 3431 0 
L 469 0 
L 469 531 
Q 828 903 1448 1529 
Q 2069 2156 2228 2338 
Q 2531 2678 2651 2914 
Q 2772 3150 2772 3378 
Q 2772 3750 2511 3984 
Q 2250 4219 1831 4219 
Q 1534 4219 1204 4116 
Q 875 4013 500 3803 
L 500 4441 
Q 881 4594 1212 4672 
Q 1544 4750 1819 4750 
Q 2544 4750 2975 4387 
Q 3406 4025 3406 3419 
Q 3406 3131 3298 2873 
Q 3191 2616 2906 2266 
Q 2828 2175 2409 1742 
Q 1991 1309 1228 531 
z
" transform="scale(0.015625)"/>
        <path id="DejaVuSans-30" d="M 2034 4250 
Q 1547 4250 1301 3770 
Q 1056 3291 1056 2328 
Q 1056 1369 1301 889 
Q 1547 409 2034 409 
Q 2525 409 2770 889 
Q 3016 1369 3016 2328 
Q 3016 3291 2770 3770 
Q 2525 4250 2034 4250 
z
M 2034 4750 
Q 2819 4750 3233 4129 
Q 3647 3509 3647 2328 
Q 3647 1150 3233 529 
Q 2819 -91 2034 -91 
Q 1250 -91 836 529 
Q 422 1150 422 2328 
Q 422 3509 836 4129 
Q 1250 4750 2034 4750 
z
" transform="scale(0.015625)"/>
        <path id="DejaVuSans-31" d="M 794 531 
L 1825 531 
L 1825 4091 
L 703 3866 
L 703 4441 
L 1819 4666 
L 2450 4666 
L 2450 531 
L 3481 531 
L 3481 0 
L 794 0 
L 794 531 
z
" transform="scale(0.015625)"/>
        <path id="DejaVuSans-36" d="M 2113 2584 
Q 1688 2584 1439 2293 
Q 1191 2003 1191 1497 
Q 1191 994 1439 701 
Q 1688 409 2113 409 
Q 2538 409 2786 701 
Q 3034 994 3034 1497 
Q 3034 2003 2786 2293 
Q 2538 2584 2113 2584 
z
M 3366 4563 
L 3366 3988 
Q 3128 4100 2886 4159 
Q 2644 4219 2406 4219 
Q 1781 4219 1451 3797 
Q 1122 3375 1075 2522 
Q 1259 2794 1537 2939 
Q 1816 3084 2150 3084 
Q 2853 3084 3261 2657 
Q 3669 2231 3669 1497 
Q 3669 778 3244 343 
Q 2819 -91 2113 -91 
Q 1303 -91 875 529 
Q 447 1150 447 2328 
Q 447 3434 972 4092 
Q 1497 4750 2381 4750 
Q 2619 4750 2861 4703 
Q 3103 4656 3366 4563 
z
" transform="scale(0.015625)"/>
        <path id="DejaVuSans-2d" d="M 313 2009 
L 1997 2009 
L 1997 1497 
L 313 1497 
L 313 2009 
z
" transform="scale(0.015625)"/>
       </defs>
       <use xlink:href="#DejaVuSans-32"/>
       <use xlink:href="#DejaVuSans-30" x="63.623047"/>
       <use xlink:href="#DejaVuSans-31" x="127.246094"/>
       <use xlink:href="#DejaVuSans-36" x="190.869141"/>
       <use xlink:href="#DejaVuSans-2d" x="254.492188"/>
       <use xlink:href="#DejaVuSans-31" x="290.576172"/>
       <use xlink:href="#DejaVuSans-32" x="354.199219"/>
       <use xlink:href="#DejaVuSans-2d" x="417.822266"/>
       <use xlink:href="#DejaVuSans-30" x="453.90625"/>
       <use xlink:href="#DejaVuSans-31" x="517.529297"/>
      </g>
     </g>
    </g>
    <g id="xtick_2">
     <g id="line2d_3">
      <path d="M 232.287249 384.48 
L 232.287249 51.84 
" clip-path="url(#pd610a1af96)" style="fill: none; stroke: #b0b0b0; stroke-width: 0.8; stroke-linecap: square"/>
     </g>
     <g id="line2d_4">
      <g>
       <use xlink:href="#m51e27a65af" x="232.287249" y="384.48" style="stroke: #000000; stroke-width: 0.8"/>
      </g>
     </g>
     <g id="text_2">
      <!-- 2016-12-05 -->
      <g transform="translate(203.229437 399.078438) scale(0.1 -0.1)">
       <defs>
        <path id="DejaVuSans-35" d="M 691 4666 
L 3169 4666 
L 3169 4134 
L 1269 4134 
L 1269 2991 
Q 1406 3038 1543 3061 
Q 1681 3084 1819 3084 
Q 2600 3084 3056 2656 
Q 3513 2228 3513 1497 
Q 3513 744 3044 326 
Q 2575 -91 1722 -91 
Q 1428 -91 1123 -41 
Q 819 9 494 109 
L 494 744 
Q 775 591 1075 516 
Q 1375 441 1709 441 
Q 2250 441 2565 725 
Q 2881 1009 2881 1497 
Q 2881 1984 2565 2268 
Q 2250 2553 1709 2553 
Q 1456 2553 1204 2497 
Q 953 2441 691 2322 
L 691 4666 
z
" transform="scale(0.015625)"/>
       </defs>
       <use xlink:href="#DejaVuSans-32"/>
       <use xlink:href="#DejaVuSans-30" x="63.623047"/>
       <use xlink:href="#DejaVuSans-31" x="127.246094"/>
       <use xlink:href="#DejaVuSans-36" x="190.869141"/>
       <use xlink:href="#DejaVuSans-2d" x="254.492188"/>
       <use xlink:href="#DejaVuSans-31" x="290.576172"/>
       <use xlink:href="#DejaVuSans-32" x="354.199219"/>
       <use xlink:href="#DejaVuSans-2d" x="417.822266"/>
       <use xlink:href="#DejaVuSans-30" x="453.90625"/>
       <use xlink:href="#DejaVuSans-35" x="517.529297"/>
      </g>
     </g>
    </g>
    <g id="xtick_3">
     <g id="line2d_5">
      <path d="M 326.138135 384.48 
L 326.138135 51.84 
" clip-path="url(#pd610a1af96)" style="fill: none; stroke: #b0b0b0; stroke-width: 0.8; stroke-linecap: square"/>
     </g>
     <g id="line2d_6">
      <g>
       <use xlink:href="#m51e27a65af" x="326.138135" y="384.48" style="stroke: #000000; stroke-width: 0.8"/>
      </g>
     </g>
     <g id="text_3">
      <!-- 2016-12-09 -->
      <g transform="translate(297.080323 399.078438) scale(0.1 -0.1)">
       <defs>
        <path id="DejaVuSans-39" d="M 703 97 
L 703 672 
Q 941 559 1184 500 
Q 1428 441 1663 441 
Q 2288 441 2617 861 
Q 2947 1281 2994 2138 
Q 2813 1869 2534 1725 
Q 2256 1581 1919 1581 
Q 1219 1581 811 2004 
Q 403 2428 403 3163 
Q 403 3881 828 4315 
Q 1253 4750 1959 4750 
Q 2769 4750 3195 4129 
Q 3622 3509 3622 2328 
Q 3622 1225 3098 567 
Q 2575 -91 1691 -91 
Q 1453 -91 1209 -44 
Q 966 3 703 97 
z
M 1959 2075 
Q 2384 2075 2632 2365 
Q 2881 2656 2881 3163 
Q 2881 3666 2632 3958 
Q 2384 4250 1959 4250 
Q 1534 4250 1286 3958 
Q 1038 3666 1038 3163 
Q 1038 2656 1286 2365 
Q 1534 2075 1959 2075 
z
" transform="scale(0.015625)"/>
       </defs>
       <use xlink:href="#DejaVuSans-32"/>
       <use xlink:href="#DejaVuSans-30" x="63.623047"/>
       <use xlink:href="#DejaVuSans-31" x="127.246094"/>
       <use xlink:href="#DejaVuSans-36" x="190.869141"/>
       <use xlink:href="#DejaVuSans-2d" x="254.492188"/>
       <use xlink:href="#DejaVuSans-31" x="290.576172"/>
       <use xlink:href="#DejaVuSans-32" x="354.199219"/>
       <use xlink:href="#DejaVuSans-2d" x="417.822266"/>
       <use xlink:href="#DejaVuSans-30" x="453.90625"/>
       <use xlink:href="#DejaVuSans-39" x="517.529297"/>
      </g>
     </g>
    </g>
    <g id="xtick_4">
     <g id="line2d_7">
      <path d="M 419.989021 384.48 
L 419.989021 51.84 
" clip-path="url(#pd610a1af96)" style="fill: none; stroke: #b0b0b0; stroke-width: 0.8; stroke-linecap: square"/>
     </g>
     <g id="line2d_8">
      <g>
       <use xlink:href="#m51e27a65af" x="419.989021" y="384.48" style="stroke: #000000; stroke-width: 0.8"/>
      </g>
     </g>
     <g id="text_4">
      <!-- 2016-12-13 -->
      <g transform="translate(390.931208 399.078438) scale(0.1 -0.1)">
       <defs>
        <path id="DejaVuSans-33" d="M 2597 2516 
Q 3050 2419 3304 2112 
Q 3559 1806 3559 1356 
Q 3559 666 3084 287 
Q 2609 -91 1734 -91 
Q 1441 -91 1130 -33 
Q 819 25 488 141 
L 488 750 
Q 750 597 1062 519 
Q 1375 441 1716 441 
Q 2309 441 2620 675 
Q 2931 909 2931 1356 
Q 2931 1769 2642 2001 
Q 2353 2234 1838 2234 
L 1294 2234 
L 1294 2753 
L 1863 2753 
Q 2328 2753 2575 2939 
Q 2822 3125 2822 3475 
Q 2822 3834 2567 4026 
Q 2313 4219 1838 4219 
Q 1578 4219 1281 4162 
Q 984 4106 628 3988 
L 628 4550 
Q 988 4650 1302 4700 
Q 1616 4750 1894 4750 
Q 2613 4750 3031 4423 
Q 3450 4097 3450 3541 
Q 3450 3153 3228 2886 
Q 3006 2619 2597 2516 
z
" transform="scale(0.015625)"/>
       </defs>
       <use xlink:href="#DejaVuSans-32"/>
       <use xlink:href="#DejaVuSans-30" x="63.623047"/>
       <use xlink:href="#DejaVuSans-31" x="127.246094"/>
       <use xlink:href="#DejaVuSans-36" x="190.869141"/>
       <use xlink:href="#DejaVuSans-2d" x="254.492188"/>
       <use xlink:href="#DejaVuSans-31" x="290.576172"/>
       <use xlink:href="#DejaVuSans-32" x="354.199219"/>
       <use xlink:href="#DejaVuSans-2d" x="417.822266"/>
       <use xlink:href="#DejaVuSans-31" x="453.90625"/>
       <use xlink:href="#DejaVuSans-33" x="517.529297"/>
      </g>
     </g>
    </g>
    <g id="xtick_5">
     <g id="line2d_9">
      <path d="M 513.839907 384.48 
L 513.839907 51.84 
" clip-path="url(#pd610a1af96)" style="fill: none; stroke: #b0b0b0; stroke-width: 0.8; stroke-linecap: square"/>
     </g>
     <g id="line2d_10">
      <g>
       <use xlink:href="#m51e27a65af" x="513.839907" y="384.48" style="stroke: #000000; stroke-width: 0.8"/>
      </g>
     </g>
     <g id="text_5">
      <!-- 2016-12-17 -->
      <g transform="translate(484.782094 399.078438) scale(0.1 -0.1)">
       <defs>
        <path id="DejaVuSans-37" d="M 525 4666 
L 3525 4666 
L 3525 4397 
L 1831 0 
L 1172 0 
L 2766 4134 
L 525 4134 
L 525 4666 
z
" transform="scale(0.015625)"/>
       </defs>
       <use xlink:href="#DejaVuSans-32"/>
       <use xlink:href="#DejaVuSans-30" x="63.623047"/>
       <use xlink:href="#DejaVuSans-31" x="127.246094"/>
       <use xlink:href="#DejaVuSans-36" x="190.869141"/>
       <use xlink:href="#DejaVuSans-2d" x="254.492188"/>
       <use xlink:href="#DejaVuSans-31" x="290.576172"/>
       <use xlink:href="#DejaVuSans-32" x="354.199219"/>
       <use xlink:href="#DejaVuSans-2d" x="417.822266"/>
       <use xlink:href="#DejaVuSans-31" x="453.90625"/>
       <use xlink:href="#DejaVuSans-37" x="517.529297"/>
      </g>
     </g>
    </g>
    <g id="xtick_6">
     <g id="line2d_11">
      <path d="M 607.690792 384.48 
L 607.690792 51.84 
" clip-path="url(#pd610a1af96)" style="fill: none; stroke: #b0b0b0; stroke-width: 0.8; stroke-linecap: square"/>
     </g>
     <g id="line2d_12">
      <g>
       <use xlink:href="#m51e27a65af" x="607.690792" y="384.48" style="stroke: #000000; stroke-width: 0.8"/>
      </g>
     </g>
     <g id="text_6">
      <!-- 2016-12-21 -->
      <g transform="translate(578.63298 399.078438) scale(0.1 -0.1)">
       <use xlink:href="#DejaVuSans-32"/>
       <use xlink:href="#DejaVuSans-30" x="63.623047"/>
       <use xlink:href="#DejaVuSans-31" x="127.246094"/>
       <use xlink:href="#DejaVuSans-36" x="190.869141"/>
       <use xlink:href="#DejaVuSans-2d" x="254.492188"/>
       <use xlink:href="#DejaVuSans-31" x="290.576172"/>
       <use xlink:href="#DejaVuSans-32" x="354.199219"/>
       <use xlink:href="#DejaVuSans-2d" x="417.822266"/>
       <use xlink:href="#DejaVuSans-32" x="453.90625"/>
       <use xlink:href="#DejaVuSans-31" x="517.529297"/>
      </g>
     </g>
    </g>
    <g id="xtick_7">
     <g id="line2d_13">
      <path d="M 701.541678 384.48 
L 701.541678 51.84 
" clip-path="url(#pd610a1af96)" style="fill: none; stroke: #b0b0b0; stroke-width: 0.8; stroke-linecap: square"/>
     </g>
     <g id="line2d_14">
      <g>
       <use xlink:href="#m51e27a65af" x="701.541678" y="384.48" style="stroke: #000000; stroke-width: 0.8"/>
      </g>
     </g>
     <g id="text_7">
      <!-- 2016-12-25 -->
      <g transform="translate(672.483866 399.078438) scale(0.1 -0.1)">
       <use xlink:href="#DejaVuSans-32"/>
       <use xlink:href="#DejaVuSans-30" x="63.623047"/>
       <use xlink:href="#DejaVuSans-31" x="127.246094"/>
       <use xlink:href="#DejaVuSans-36" x="190.869141"/>
       <use xlink:href="#DejaVuSans-2d" x="254.492188"/>
       <use xlink:href="#DejaVuSans-31" x="290.576172"/>
       <use xlink:href="#DejaVuSans-32" x="354.199219"/>
       <use xlink:href="#DejaVuSans-2d" x="417.822266"/>
       <use xlink:href="#DejaVuSans-32" x="453.90625"/>
       <use xlink:href="#DejaVuSans-35" x="517.529297"/>
      </g>
     </g>
    </g>
    <g id="text_8">
     <!-- Time -->
     <g transform="translate(430.566406 412.756563) scale(0.1 -0.1)">
      <defs>
       <path id="DejaVuSans-54" d="M -19 4666 
L 3928 4666 
L 3928 4134 
L 2272 4134 
L 2272 0 
L 1638 0 
L 1638 4134 
L -19 4134 
L -19 4666 
z
" transform="scale(0.015625)"/>
       <path id="DejaVuSans-69" d="M 603 3500 
L 1178 3500 
L 1178 0 
L 603 0 
L 603 3500 
z
M 603 4863 
L 1178 4863 
L 1178 4134 
L 603 4134 
L 603 4863 
z
" transform="scale(0.015625)"/>
       <path id="DejaVuSans-6d" d="M 3328 2828 
Q 3544 3216 3844 3400 
Q 4144 3584 4550 3584 
Q 5097 3584 5394 3201 
Q 5691 2819 5691 2113 
L 5691 0 
L 5113 0 
L 5113 2094 
Q 5113 2597 4934 2840 
Q 4756 3084 4391 3084 
Q 3944 3084 3684 2787 
Q 3425 2491 3425 1978 
L 3425 0 
L 2847 0 
L 2847 2094 
Q 2847 2600 2669 2842 
Q 2491 3084 2119 3084 
Q 1678 3084 1418 2786 
Q 1159 2488 1159 1978 
L 1159 0 
L 581 0 
L 581 3500 
L 1159 3500 
L 1159 2956 
Q 1356 3278 1631 3431 
Q 1906 3584 2284 3584 
Q 2666 3584 2933 3390 
Q 3200 3197 3328 2828 
z
" transform="scale(0.015625)"/>
       <path id="DejaVuSans-65" d="M 3597 1894 
L 3597 1613 
L 953 1613 
Q 991 1019 1311 708 
Q 1631 397 2203 397 
Q 2534 397 2845 478 
Q 3156 559 3463 722 
L 3463 178 
Q 3153 47 2828 -22 
Q 2503 -91 2169 -91 
Q 1331 -91 842 396 
Q 353 884 353 1716 
Q 353 2575 817 3079 
Q 1281 3584 2069 3584 
Q 2775 3584 3186 3129 
Q 3597 2675 3597 1894 
z
M 3022 2063 
Q 3016 2534 2758 2815 
Q 2500 3097 2075 3097 
Q 1594 3097 1305 2825 
Q 1016 2553 972 2059 
L 3022 2063 
z
" transform="scale(0.015625)"/>
      </defs>
      <use xlink:href="#DejaVuSans-54"/>
      <use xlink:href="#DejaVuSans-69" x="57.958984"/>
      <use xlink:href="#DejaVuSans-6d" x="85.742188"/>
      <use xlink:href="#DejaVuSans-65" x="183.154297"/>
     </g>
    </g>
   </g>
   <g id="matplotlib.axis_2">
    <g id="ytick_1">
     <g id="line2d_15">
      <path d="M 108 382.446862 
L 777.6 382.446862 
" clip-path="url(#pd610a1af96)" style="fill: none; stroke: #b0b0b0; stroke-width: 0.8; stroke-linecap: square"/>
     </g>
     <g id="line2d_16">
      <defs>
       <path id="m51597f8344" d="M 0 0 
L -3.5 0 
" style="stroke: #000000; stroke-width: 0.8"/>
      </defs>
      <g>
       <use xlink:href="#m51597f8344" x="108" y="382.446862" style="stroke: #000000; stroke-width: 0.8"/>
      </g>
     </g>
     <g id="text_9">
      <!-- 0 -->
      <g transform="translate(94.6375 386.246081) scale(0.1 -0.1)">
       <use xlink:href="#DejaVuSans-30"/>
      </g>
     </g>
    </g>
    <g id="ytick_2">
     <g id="line2d_17">
      <path d="M 108 335.708068 
L 777.6 335.708068 
" clip-path="url(#pd610a1af96)" style="fill: none; stroke: #b0b0b0; stroke-width: 0.8; stroke-linecap: square"/>
     </g>
     <g id="line2d_18">
      <g>
       <use xlink:href="#m51597f8344" x="108" y="335.708068" style="stroke: #000000; stroke-width: 0.8"/>
      </g>
     </g>
     <g id="text_10">
      <!-- 100 -->
      <g transform="translate(81.9125 339.507287) scale(0.1 -0.1)">
       <use xlink:href="#DejaVuSans-31"/>
       <use xlink:href="#DejaVuSans-30" x="63.623047"/>
       <use xlink:href="#DejaVuSans-30" x="127.246094"/>
      </g>
     </g>
    </g>
    <g id="ytick_3">
     <g id="line2d_19">
      <path d="M 108 288.969274 
L 777.6 288.969274 
" clip-path="url(#pd610a1af96)" style="fill: none; stroke: #b0b0b0; stroke-width: 0.8; stroke-linecap: square"/>
     </g>
     <g id="line2d_20">
      <g>
       <use xlink:href="#m51597f8344" x="108" y="288.969274" style="stroke: #000000; stroke-width: 0.8"/>
      </g>
     </g>
     <g id="text_11">
      <!-- 200 -->
      <g transform="translate(81.9125 292.768492) scale(0.1 -0.1)">
       <use xlink:href="#DejaVuSans-32"/>
       <use xlink:href="#DejaVuSans-30" x="63.623047"/>
       <use xlink:href="#DejaVuSans-30" x="127.246094"/>
      </g>
     </g>
    </g>
    <g id="ytick_4">
     <g id="line2d_21">
      <path d="M 108 242.230479 
L 777.6 242.230479 
" clip-path="url(#pd610a1af96)" style="fill: none; stroke: #b0b0b0; stroke-width: 0.8; stroke-linecap: square"/>
     </g>
     <g id="line2d_22">
      <g>
       <use xlink:href="#m51597f8344" x="108" y="242.230479" style="stroke: #000000; stroke-width: 0.8"/>
      </g>
     </g>
     <g id="text_12">
      <!-- 300 -->
      <g transform="translate(81.9125 246.029698) scale(0.1 -0.1)">
       <use xlink:href="#DejaVuSans-33"/>
       <use xlink:href="#DejaVuSans-30" x="63.623047"/>
       <use xlink:href="#DejaVuSans-30" x="127.246094"/>
      </g>
     </g>
    </g>
    <g id="ytick_5">
     <g id="line2d_23">
      <path d="M 108 195.491685 
L 777.6 195.491685 
" clip-path="url(#pd610a1af96)" style="fill: none; stroke: #b0b0b0; stroke-width: 0.8; stroke-linecap: square"/>
     </g>
     <g id="line2d_24">
      <g>
       <use xlink:href="#m51597f8344" x="108" y="195.491685" style="stroke: #000000; stroke-width: 0.8"/>
      </g>
     </g>
     <g id="text_13">
      <!-- 400 -->
      <g transform="translate(81.9125 199.290903) scale(0.1 -0.1)">
       <defs>
        <path id="DejaVuSans-34" d="M 2419 4116 
L 825 1625 
L 2419 1625 
L 2419 4116 
z
M 2253 4666 
L 3047 4666 
L 3047 1625 
L 3713 1625 
L 3713 1100 
L 3047 1100 
L 3047 0 
L 2419 0 
L 2419 1100 
L 313 1100 
L 313 1709 
L 2253 4666 
z
" transform="scale(0.015625)"/>
       </defs>
       <use xlink:href="#DejaVuSans-34"/>
       <use xlink:href="#DejaVuSans-30" x="63.623047"/>
       <use xlink:href="#DejaVuSans-30" x="127.246094"/>
      </g>
     </g>
    </g>
    <g id="ytick_6">
     <g id="line2d_25">
      <path d="M 108 148.75289 
L 777.6 148.75289 
" clip-path="url(#pd610a1af96)" style="fill: none; stroke: #b0b0b0; stroke-width: 0.8; stroke-linecap: square"/>
     </g>
     <g id="line2d_26">
      <g>
       <use xlink:href="#m51597f8344" x="108" y="148.75289" style="stroke: #000000; stroke-width: 0.8"/>
      </g>
     </g>
     <g id="text_14">
      <!-- 500 -->
      <g transform="translate(81.9125 152.552109) scale(0.1 -0.1)">
       <use xlink:href="#DejaVuSans-35"/>
       <use xlink:href="#DejaVuSans-30" x="63.623047"/>
       <use xlink:href="#DejaVuSans-30" x="127.246094"/>
      </g>
     </g>
    </g>
    <g id="ytick_7">
     <g id="line2d_27">
      <path d="M 108 102.014096 
L 777.6 102.014096 
" clip-path="url(#pd610a1af96)" style="fill: none; stroke: #b0b0b0; stroke-width: 0.8; stroke-linecap: square"/>
     </g>
     <g id="line2d_28">
      <g>
       <use xlink:href="#m51597f8344" x="108" y="102.014096" style="stroke: #000000; stroke-width: 0.8"/>
      </g>
     </g>
     <g id="text_15">
      <!-- 600 -->
      <g transform="translate(81.9125 105.813315) scale(0.1 -0.1)">
       <use xlink:href="#DejaVuSans-36"/>
       <use xlink:href="#DejaVuSans-30" x="63.623047"/>
       <use xlink:href="#DejaVuSans-30" x="127.246094"/>
      </g>
     </g>
    </g>
    <g id="ytick_8">
     <g id="line2d_29">
      <path d="M 108 55.275301 
L 777.6 55.275301 
" clip-path="url(#pd610a1af96)" style="fill: none; stroke: #b0b0b0; stroke-width: 0.8; stroke-linecap: square"/>
     </g>
     <g id="line2d_30">
      <g>
       <use xlink:href="#m51597f8344" x="108" y="55.275301" style="stroke: #000000; stroke-width: 0.8"/>
      </g>
     </g>
     <g id="text_16">
      <!-- 700 -->
      <g transform="translate(81.9125 59.07452) scale(0.1 -0.1)">
       <use xlink:href="#DejaVuSans-37"/>
       <use xlink:href="#DejaVuSans-30" x="63.623047"/>
       <use xlink:href="#DejaVuSans-30" x="127.246094"/>
      </g>
     </g>
    </g>
    <g id="text_17">
     <!-- Number of Trips -->
     <g transform="translate(75.832812 257.783437) rotate(-90) scale(0.1 -0.1)">
      <defs>
       <path id="DejaVuSans-4e" d="M 628 4666 
L 1478 4666 
L 3547 763 
L 3547 4666 
L 4159 4666 
L 4159 0 
L 3309 0 
L 1241 3903 
L 1241 0 
L 628 0 
L 628 4666 
z
" transform="scale(0.015625)"/>
       <path id="DejaVuSans-75" d="M 544 1381 
L 544 3500 
L 1119 3500 
L 1119 1403 
Q 1119 906 1312 657 
Q 1506 409 1894 409 
Q 2359 409 2629 706 
Q 2900 1003 2900 1516 
L 2900 3500 
L 3475 3500 
L 3475 0 
L 2900 0 
L 2900 538 
Q 2691 219 2414 64 
Q 2138 -91 1772 -91 
Q 1169 -91 856 284 
Q 544 659 544 1381 
z
M 1991 3584 
L 1991 3584 
z
" transform="scale(0.015625)"/>
       <path id="DejaVuSans-62" d="M 3116 1747 
Q 3116 2381 2855 2742 
Q 2594 3103 2138 3103 
Q 1681 3103 1420 2742 
Q 1159 2381 1159 1747 
Q 1159 1113 1420 752 
Q 1681 391 2138 391 
Q 2594 391 2855 752 
Q 3116 1113 3116 1747 
z
M 1159 2969 
Q 1341 3281 1617 3432 
Q 1894 3584 2278 3584 
Q 2916 3584 3314 3078 
Q 3713 2572 3713 1747 
Q 3713 922 3314 415 
Q 2916 -91 2278 -91 
Q 1894 -91 1617 61 
Q 1341 213 1159 525 
L 1159 0 
L 581 0 
L 581 4863 
L 1159 4863 
L 1159 2969 
z
" transform="scale(0.015625)"/>
       <path id="DejaVuSans-72" d="M 2631 2963 
Q 2534 3019 2420 3045 
Q 2306 3072 2169 3072 
Q 1681 3072 1420 2755 
Q 1159 2438 1159 1844 
L 1159 0 
L 581 0 
L 581 3500 
L 1159 3500 
L 1159 2956 
Q 1341 3275 1631 3429 
Q 1922 3584 2338 3584 
Q 2397 3584 2469 3576 
Q 2541 3569 2628 3553 
L 2631 2963 
z
" transform="scale(0.015625)"/>
       <path id="DejaVuSans-20" transform="scale(0.015625)"/>
       <path id="DejaVuSans-6f" d="M 1959 3097 
Q 1497 3097 1228 2736 
Q 959 2375 959 1747 
Q 959 1119 1226 758 
Q 1494 397 1959 397 
Q 2419 397 2687 759 
Q 2956 1122 2956 1747 
Q 2956 2369 2687 2733 
Q 2419 3097 1959 3097 
z
M 1959 3584 
Q 2709 3584 3137 3096 
Q 3566 2609 3566 1747 
Q 3566 888 3137 398 
Q 2709 -91 1959 -91 
Q 1206 -91 779 398 
Q 353 888 353 1747 
Q 353 2609 779 3096 
Q 1206 3584 1959 3584 
z
" transform="scale(0.015625)"/>
       <path id="DejaVuSans-66" d="M 2375 4863 
L 2375 4384 
L 1825 4384 
Q 1516 4384 1395 4259 
Q 1275 4134 1275 3809 
L 1275 3500 
L 2222 3500 
L 2222 3053 
L 1275 3053 
L 1275 0 
L 697 0 
L 697 3053 
L 147 3053 
L 147 3500 
L 697 3500 
L 697 3744 
Q 697 4328 969 4595 
Q 1241 4863 1831 4863 
L 2375 4863 
z
" transform="scale(0.015625)"/>
       <path id="DejaVuSans-70" d="M 1159 525 
L 1159 -1331 
L 581 -1331 
L 581 3500 
L 1159 3500 
L 1159 2969 
Q 1341 3281 1617 3432 
Q 1894 3584 2278 3584 
Q 2916 3584 3314 3078 
Q 3713 2572 3713 1747 
Q 3713 922 3314 415 
Q 2916 -91 2278 -91 
Q 1894 -91 1617 61 
Q 1341 213 1159 525 
z
M 3116 1747 
Q 3116 2381 2855 2742 
Q 2594 3103 2138 3103 
Q 1681 3103 1420 2742 
Q 1159 2381 1159 1747 
Q 1159 1113 1420 752 
Q 1681 391 2138 391 
Q 2594 391 2855 752 
Q 3116 1113 3116 1747 
z
" transform="scale(0.015625)"/>
       <path id="DejaVuSans-73" d="M 2834 3397 
L 2834 2853 
Q 2591 2978 2328 3040 
Q 2066 3103 1784 3103 
Q 1356 3103 1142 2972 
Q 928 2841 928 2578 
Q 928 2378 1081 2264 
Q 1234 2150 1697 2047 
L 1894 2003 
Q 2506 1872 2764 1633 
Q 3022 1394 3022 966 
Q 3022 478 2636 193 
Q 2250 -91 1575 -91 
Q 1294 -91 989 -36 
Q 684 19 347 128 
L 347 722 
Q 666 556 975 473 
Q 1284 391 1588 391 
Q 1994 391 2212 530 
Q 2431 669 2431 922 
Q 2431 1156 2273 1281 
Q 2116 1406 1581 1522 
L 1381 1569 
Q 847 1681 609 1914 
Q 372 2147 372 2553 
Q 372 3047 722 3315 
Q 1072 3584 1716 3584 
Q 2034 3584 2315 3537 
Q 2597 3491 2834 3397 
z
" transform="scale(0.015625)"/>
      </defs>
      <use xlink:href="#DejaVuSans-4e"/>
      <use xlink:href="#DejaVuSans-75" x="74.804688"/>
      <use xlink:href="#DejaVuSans-6d" x="138.183594"/>
      <use xlink:href="#DejaVuSans-62" x="235.595703"/>
      <use xlink:href="#DejaVuSans-65" x="299.072266"/>
      <use xlink:href="#DejaVuSans-72" x="360.595703"/>
      <use xlink:href="#DejaVuSans-20" x="401.708984"/>
      <use xlink:href="#DejaVuSans-6f" x="433.496094"/>
      <use xlink:href="#DejaVuSans-66" x="494.677734"/>
      <use xlink:href="#DejaVuSans-20" x="529.882812"/>
      <use xlink:href="#DejaVuSans-54" x="561.669922"/>
      <use xlink:href="#DejaVuSans-72" x="608.003906"/>
      <use xlink:href="#DejaVuSans-69" x="649.117188"/>
      <use xlink:href="#DejaVuSans-70" x="676.900391"/>
      <use xlink:href="#DejaVuSans-73" x="740.376953"/>
     </g>
    </g>
   </g>
   <g id="line2d_31">
    <path d="M 138.436364 282.425842 
L 139.576913 327.295085 
L 140.39159 343.653663 
L 140.717462 357.207913 
L 141.206268 363.751345 
L 142.020946 367.02306 
L 142.509753 357.207913 
L 142.672688 358.610077 
L 143.324431 367.490448 
L 143.487366 363.751345 
L 143.650302 365.620896 
L 143.813237 357.207913 
L 145.442593 299.251808 
L 145.605529 297.849645 
L 145.768464 275.882411 
L 146.257271 245.502195 
L 146.746077 229.143617 
L 146.909013 199.698176 
L 147.560755 234.284884 
L 147.886626 234.284884 
L 148.049562 245.502195 
L 148.375433 254.849954 
L 148.701304 254.849954 
L 149.353047 253.915178 
L 149.678918 249.241298 
L 149.841853 263.730325 
L 150.33066 273.545471 
L 150.819467 268.404204 
L 151.471209 248.306522 
L 152.611758 226.339289 
L 152.774693 216.524142 
L 153.589371 215.589366 
L 154.078178 211.382875 
L 155.055791 162.774529 
L 156.033405 145.481175 
L 156.19634 147.350726 
L 156.522211 129.122597 
L 157.988631 176.796167 
L 158.640374 191.752581 
L 160.432665 206.241607 
L 161.084407 225.871901 
L 161.410278 229.143617 
L 162.713763 298.78442 
L 164.017247 320.751654 
L 164.831925 341.784111 
L 166.13541 352.066646 
L 166.624216 364.686121 
L 166.787152 362.816569 
L 166.950088 358.142689 
L 167.113023 357.207913 
L 167.438894 360.012241 
L 168.253572 333.371128 
L 168.416508 318.882102 
L 169.06825 284.762782 
L 169.719992 232.415332 
L 170.045863 235.687048 
L 170.371734 201.10034 
L 171.512283 242.697867 
L 172.326961 234.752272 
L 172.489897 261.393385 
L 172.652832 245.034807 
L 172.815768 250.643462 
L 173.304575 252.513014 
L 173.793381 260.925997 
L 173.956317 287.56711 
L 174.119252 272.610696 
L 174.282188 273.545471 
L 174.445124 265.599876 
L 175.422737 253.44779 
L 176.40035 215.589366 
L 177.215028 200.632952 
L 177.377964 207.176383 
L 177.540899 177.730943 
L 178.518513 149.220278 
L 178.681448 149.220278 
L 179.333191 140.807295 
L 180.47374 100.611932 
L 180.636675 109.959691 
L 181.288417 116.035734 
L 181.777224 130.057372 
L 182.428966 155.763709 
L 183.080709 136.133416 
L 183.895386 159.502813 
L 184.547129 146.415951 
L 185.361807 152.491994 
L 185.524742 151.08983 
L 185.850613 178.665719 
L 186.502355 219.795858 
L 186.665291 204.839444 
L 186.991162 189.883029 
L 187.154098 215.589366 
L 188.131711 249.241298 
L 188.783453 265.599876 
L 189.435196 265.599876 
L 189.761067 299.251808 
L 190.249873 321.68643 
L 190.901616 338.512396 
L 191.227487 331.034189 
L 191.390422 336.175456 
L 192.368036 325.425533 
L 192.530971 331.501577 
L 194.323263 285.23017 
L 194.812069 261.393385 
L 195.626747 260.458609 
L 196.115554 254.849954 
L 196.767296 231.013168 
L 197.256103 238.491376 
L 198.070781 237.089212 
L 198.396652 227.741453 
L 198.722523 226.339289 
L 198.885458 201.567728 
L 199.700136 189.415641 
L 201.492427 168.383184 
L 202.470041 170.720124 
L 203.936461 122.579165 
L 204.914074 132.394312 
L 205.239945 164.176692 
L 205.402881 150.155054 
L 205.891688 173.057063 
L 206.054623 151.08983 
L 206.217559 154.828934 
L 206.869301 137.53558 
L 207.195172 147.350726 
L 207.358108 132.8617 
L 208.335721 123.046553 
L 208.498657 136.133416 
L 208.824528 120.709614 
L 208.987464 130.057372 
L 209.47627 169.31796 
L 209.802141 161.372365 
L 209.965077 164.176692 
L 210.453884 165.578856 
L 210.616819 188.948253 
L 211.594433 202.969892 
L 211.757368 224.469737 
L 212.897917 251.578238 
L 213.549659 302.056136 
L 214.201402 333.838516 
L 214.690208 345.055827 
L 215.179015 343.653663 
L 215.341951 345.055827 
L 216.319564 337.110232 
L 216.4825 327.762473 
L 217.460113 317.01255 
L 217.623048 317.947326 
L 218.437726 292.240989 
L 219.089469 279.621515 
L 220.067082 263.730325 
L 220.718824 259.991221 
L 220.88176 255.78473 
L 221.044695 256.719505 
L 221.696438 251.11085 
L 224.303407 217.926306 
L 224.466342 196.426461 
L 225.118084 224.469737 
L 225.28102 226.339289 
L 225.443956 205.774219 
L 225.606891 212.317651 
L 226.095698 214.187202 
L 226.910376 206.241607 
L 227.073311 209.513323 
L 227.562118 205.774219 
L 227.887989 204.839444 
L 228.702667 251.578238 
L 228.865602 228.208841 
L 229.191474 232.88272 
L 229.843216 245.034807 
L 230.332023 268.404204 
L 230.494958 247.839134 
L 230.820829 255.317342 
L 230.983765 270.741144 
L 231.309636 271.67592 
L 231.798443 289.436662 
L 232.61312 314.675611 
L 233.264863 322.621206 
L 235.545961 359.544853 
L 235.871832 359.544853 
L 236.034767 354.870974 
L 236.360639 353.46881 
L 236.523574 357.675301 
L 237.012381 363.283957 
L 237.827059 360.012241 
L 237.989994 356.740526 
L 238.15293 357.207913 
L 239.61935 269.806368 
L 241.248705 236.154436 
L 242.226319 267.00204 
L 243.040997 272.610696 
L 243.366868 257.186893 
L 244.344481 277.751963 
L 244.996223 262.795549 
L 245.159159 281.023679 
L 245.48503 275.415023 
L 246.788515 245.969583 
L 247.603193 230.545781 
L 248.580806 234.752272 
L 248.906677 210.448099 
L 249.069613 213.719815 
L 249.232548 204.372056 
L 249.558419 205.774219 
L 251.024839 172.122287 
L 251.350711 197.361236 
L 251.676582 204.372056 
L 252.002453 217.926306 
L 252.491259 252.513014 
L 253.305937 265.132488 
L 254.446486 274.947635 
L 255.4241 290.371437 
L 255.912906 324.490757 
L 256.89052 338.979784 
L 257.216391 347.860155 
L 258.031069 360.947017 
L 258.35694 360.479629 
L 259.334553 361.414405 
L 259.660424 356.740526 
L 259.986296 366.555672 
L 260.963909 360.012241 
L 261.452716 358.610077 
L 261.615651 352.534034 
L 262.104458 339.447172 
L 262.919136 291.306213 
L 263.082071 267.00204 
L 264.874362 243.632643 
L 265.68904 259.523833 
L 266.340783 237.5566 
L 266.666654 266.534652 
L 267.15546 274.480247 
L 267.807203 273.078083 
L 268.458945 254.382566 
L 269.110687 251.11085 
L 269.599494 233.350108 
L 269.925365 243.165255 
L 270.251236 239.893539 
L 270.414172 231.480556 
L 270.577107 237.5566 
L 270.740043 220.730634 
L 271.391785 194.556909 
L 271.554721 218.861082 
L 271.717656 216.056754 
L 273.509947 106.687975 
L 273.835819 121.644389 
L 274.976368 94.068501 
L 275.139303 117.437898 
L 275.302239 99.677156 
L 275.62811 137.068192 
L 276.442788 166.98102 
L 278.072143 256.252117 
L 278.398014 266.534652 
L 278.886821 288.034498 
L 279.212692 286.632334 
L 279.701499 312.806059 
L 280.02737 320.751654 
L 280.353241 331.968964 
L 280.842048 342.718887 
L 281.656726 352.534034 
L 281.982597 360.479629 
L 282.308468 359.544853 
L 283.286081 360.479629 
L 283.937824 365.620896 
L 284.589566 360.012241 
L 285.567179 336.642844 
L 286.218922 300.653972 
L 287.033599 229.611005 
L 288.500019 231.480556 
L 289.151762 243.632643 
L 289.314697 255.78473 
L 289.803504 242.697867 
L 290.292311 249.708686 
L 291.106989 267.469428 
L 291.595795 258.589057 
L 291.921666 272.610696 
L 292.89928 258.121669 
L 293.062215 253.44779 
L 293.551022 256.252117 
L 295.506249 222.132798 
L 295.669184 214.65459 
L 296.320927 177.263555 
L 297.461476 171.187512 
L 297.787347 149.220278 
L 298.927896 196.893849 
L 300.883122 237.089212 
L 301.208994 228.676229 
L 301.534865 258.589057 
L 301.860736 263.730325 
L 302.349543 250.643462 
L 303.16422 296.447481 
L 304.956512 345.523215 
L 305.445318 352.066646 
L 305.771189 361.881793 
L 306.097061 360.479629 
L 306.585867 359.077465 
L 306.911738 360.947017 
L 307.400545 360.012241 
L 308.052287 367.490448 
L 308.215223 357.207913 
L 308.541094 353.936198 
L 309.029901 345.055827 
L 310.333385 240.828315 
L 310.496321 246.436971 
L 310.659256 225.404513 
L 311.310999 212.785039 
L 311.799805 239.893539 
L 312.288612 232.88272 
L 312.451548 257.654281 
L 312.777419 246.904359 
L 312.940354 253.915178 
L 313.266225 259.056445 
L 313.429161 266.534652 
L 313.592097 267.469428 
L 314.080903 258.121669 
L 314.406774 271.208532 
L 315.058517 261.860773 
L 315.873194 261.393385 
L 316.687872 244.567419 
L 317.176679 245.034807 
L 318.317228 226.806677 
L 318.480164 190.350417 
L 318.643099 212.317651 
L 318.96897 214.65459 
L 319.294841 176.796167 
L 319.783648 143.611623 
L 319.946584 171.187512 
L 320.272455 166.98102 
L 320.43539 159.035425 
L 321.413004 154.828934 
L 322.227682 178.665719 
L 323.205295 171.187512 
L 323.36823 179.133107 
L 323.857037 178.665719 
L 325.160522 192.687357 
L 325.649328 203.43728 
L 325.9752 227.741453 
L 326.952813 265.132488 
L 327.278684 282.89323 
L 327.604555 281.958454 
L 327.930426 308.599567 
L 328.093362 312.338671 
L 329.233911 342.251499 
L 329.559782 343.186275 
L 329.722718 344.588439 
L 329.885653 344.121051 
L 330.37446 345.523215 
L 331.84088 351.599258 
L 332.003815 355.80575 
L 332.655558 329.164637 
L 334.610785 196.426461 
L 335.588398 224.469737 
L 335.751333 242.230479 
L 336.077205 252.045626 
L 337.217754 254.849954 
L 337.380689 239.893539 
L 337.543625 256.719505 
L 338.521238 265.599876 
L 339.010045 256.252117 
L 339.335916 253.915178 
L 339.498851 256.252117 
L 339.661787 246.904359 
L 339.987658 246.436971 
L 340.802336 209.045935 
L 342.268756 175.394003 
L 342.920498 132.8617 
L 343.409305 120.709614 
L 343.898112 86.122906 
L 344.223983 99.209768 
L 345.364532 72.568655 
L 345.690403 120.709614 
L 346.668016 131.459536 
L 347.156823 123.513941 
L 347.482694 133.796476 
L 347.64563 135.19864 
L 348.297372 146.883338 
L 348.460308 127.720433 
L 348.949114 141.274683 
L 349.437921 142.209459 
L 351.719019 206.241607 
L 352.370761 256.252117 
L 352.696632 267.936816 
L 353.51131 247.839134 
L 353.837181 285.23017 
L 355.140666 345.990603 
L 355.792408 340.381947 
L 356.118279 331.968964 
L 356.770021 324.958145 
L 357.421764 325.892921 
L 357.584699 315.610386 
L 358.562313 291.306213 
L 358.725248 281.491066 
L 359.37699 257.186893 
L 360.028733 240.360927 
L 360.354604 253.44779 
L 361.006346 238.023988 
L 361.658088 216.99153 
L 362.146895 211.382875 
L 362.961573 190.350417 
L 365.079735 182.87221 
L 365.242671 177.730943 
L 365.731478 170.720124 
L 367.034962 142.676847 
L 367.686704 127.253045 
L 368.338447 93.133725 
L 368.501382 115.568346 
L 368.827253 115.568346 
L 369.641931 106.220587 
L 370.130738 138.937743 
L 370.293673 138.937743 
L 370.619544 121.644389 
L 370.78248 131.459536 
L 370.945416 118.372674 
L 371.597158 144.546399 
L 371.760093 125.850881 
L 372.411836 121.644389 
L 374.041191 136.600804 
L 375.018805 175.394003 
L 375.833483 219.795858 
L 376.159354 245.034807 
L 378.603387 335.708068 
L 379.581001 346.925379 
L 380.72155 333.838516 
L 380.884485 338.979784 
L 381.210356 323.088594 
L 381.373292 333.838516 
L 382.350905 295.045317 
L 382.513841 295.512705 
L 383.002647 288.969274 
L 383.328519 272.143308 
L 383.980261 265.132488 
L 384.306132 266.067264 
L 384.632003 252.045626 
L 384.957874 246.436971 
L 385.12081 258.121669 
L 385.609617 243.165255 
L 388.216586 215.121978 
L 388.705392 209.513323 
L 388.868328 204.839444 
L 389.031263 216.99153 
L 390.334748 195.024297 
L 391.149426 195.959073 
L 391.312361 183.806986 
L 391.638232 219.795858 
L 391.964104 229.143617 
L 392.127039 216.056754 
L 392.289975 229.611005 
L 393.593459 257.186893 
L 394.082266 277.284575 
L 395.38575 297.849645 
L 395.548686 292.240989 
L 395.874557 299.719196 
L 396.363364 290.371437 
L 396.526299 308.132179 
L 396.852171 321.219042 
L 397.015106 319.34949 
L 397.992719 346.457991 
L 398.807397 348.327543 
L 399.45914 359.077465 
L 400.110882 360.479629 
L 400.599689 351.13187 
L 400.762624 354.403586 
L 400.92556 353.46881 
L 401.251431 369.36 
L 402.066109 360.947017 
L 402.39198 348.79493 
L 403.043722 332.436352 
L 403.369593 315.610386 
L 405.161884 201.567728 
L 405.813627 240.360927 
L 407.280047 263.262937 
L 407.442982 262.328161 
L 407.768853 271.208532 
L 408.420596 278.686739 
L 408.746467 280.088903 
L 409.235274 271.67592 
L 410.049951 271.67592 
L 410.701694 246.904359 
L 411.1905 236.621824 
L 411.679307 234.752272 
L 412.331049 211.850263 
L 413.471598 189.415641 
L 413.960405 185.676538 
L 414.449212 199.698176 
L 414.938018 194.089521 
L 418.19673 252.980402 
L 418.359665 261.860773 
L 418.685536 268.404204 
L 418.848472 288.501886 
L 419.826085 297.382257 
L 419.989021 294.110541 
L 420.151956 306.730015 
L 420.477828 318.414714 
L 421.12957 332.436352 
L 421.618376 351.599258 
L 421.781312 352.534034 
L 422.107183 357.675301 
L 422.59599 361.881793 
L 422.758925 360.012241 
L 423.084797 354.403586 
L 423.410668 367.490448 
L 423.899474 362.349181 
L 424.225346 365.153509 
L 425.854701 355.338362 
L 427.972864 231.013168 
L 428.298735 243.165255 
L 428.46167 217.926306 
L 429.113412 247.371747 
L 429.765155 258.589057 
L 429.92809 277.751963 
L 430.253961 246.436971 
L 430.905704 270.273756 
L 431.39451 276.817187 
L 432.860931 273.545471 
L 433.023866 253.915178 
L 433.838544 250.176074 
L 435.304964 222.600185 
L 435.793771 228.676229 
L 436.445513 209.513323 
L 436.771384 181.470046 
L 437.097255 195.024297 
L 437.748997 159.502813 
L 438.074869 181.470046 
L 438.889546 166.98102 
L 439.215418 186.611314 
L 439.378353 185.20915 
L 439.86716 202.502504 
L 441.496515 249.708686 
L 441.659451 244.100031 
L 442.474129 264.197713 
L 442.962936 283.360618 
L 443.451742 295.045317 
L 444.26642 320.284266 
L 444.429356 319.34949 
L 445.569905 344.588439 
L 445.73284 352.534034 
L 446.547518 360.012241 
L 447.036325 360.012241 
L 448.339809 365.620896 
L 448.66568 364.686121 
L 449.480358 351.599258 
L 449.643294 341.784111 
L 450.457972 306.262628 
L 450.620907 276.349799 
L 450.946778 249.241298 
L 451.924392 207.176383 
L 452.413198 234.284884 
L 452.739069 230.078393 
L 453.879618 249.241298 
L 454.042554 249.708686 
L 455.834845 274.947635 
L 456.160716 266.067264 
L 457.13833 250.643462 
L 457.301265 258.121669 
L 457.790072 252.980402 
L 458.767685 225.871901 
L 459.582363 213.719815 
L 460.722912 135.666028 
L 461.53759 154.828934 
L 462.352268 159.970201 
L 463.00401 166.046244 
L 463.166946 175.861391 
L 463.492817 172.589675 
L 464.144559 202.502504 
L 464.633366 202.969892 
L 464.796301 206.708995 
L 465.610979 222.132798 
L 465.773915 215.589366 
L 466.914464 266.067264 
L 467.40327 294.577929 
L 467.566206 295.512705 
L 468.380884 320.751654 
L 469.032626 328.697249 
L 470.336111 355.80575 
L 471.313724 359.544853 
L 471.47666 364.686121 
L 471.802531 361.881793 
L 472.94308 353.46881 
L 473.594822 317.479938 
L 474.572435 231.480556 
L 475.87592 218.861082 
L 477.016469 244.100031 
L 478.319953 233.350108 
L 479.134631 248.77391 
L 480.112245 244.100031 
L 480.27518 222.132798 
L 481.252793 220.730634 
L 482.230407 173.991839 
L 482.719214 179.600495 
L 482.882149 167.448408 
L 483.370956 181.937434 
L 483.696827 138.002968 
L 484.348569 95.470665 
L 484.837376 104.351036 
L 485.326183 85.655518 
L 485.489118 103.41626 
L 485.652054 88.927233 
L 489.399572 185.676538 
L 489.562507 195.959073 
L 490.703056 229.143617 
L 492.006541 294.110541 
L 492.984154 335.24068 
L 493.798832 344.121051 
L 494.124703 341.784111 
L 494.450574 346.925379 
L 495.102317 361.414405 
L 496.242865 349.729706 
L 497.220479 298.317032 
L 498.198092 216.524142 
L 498.686899 199.698176 
L 499.01277 196.426461 
L 499.338641 199.698176 
L 500.642126 225.404513 
L 500.967997 245.502195 
L 501.782675 238.491376 
L 502.271481 247.371747 
L 502.434417 244.100031 
L 503.41203 261.393385 
L 503.737901 246.904359 
L 504.063773 232.415332 
L 504.226708 235.21966 
L 504.389644 230.545781 
L 505.041386 195.959073 
L 505.367257 204.839444 
L 506.018999 151.08983 
L 506.507806 153.42677 
L 507.974226 85.18813 
L 508.137162 92.666337 
L 508.788904 66.96 
L 509.277711 82.85119 
L 510.255324 81.449026 
L 510.744131 116.503122 
L 511.070002 116.035734 
L 511.558809 137.53558 
L 511.88468 110.894467 
L 512.699358 105.753199 
L 513.514035 157.633261 
L 514.328713 157.165873 
L 514.654584 164.64408 
L 515.143391 181.937434 
L 515.306327 174.459227 
L 516.935682 265.132488 
L 517.261553 273.545471 
L 518.076231 308.132179 
L 519.705587 349.262318 
L 520.520265 351.599258 
L 520.6832 347.860155 
L 521.823749 339.91456 
L 522.14962 327.295085 
L 522.312556 331.501577 
L 522.475492 320.751654 
L 523.941912 291.306213 
L 525.734203 241.763091 
L 526.548881 243.632643 
L 526.874752 219.32847 
L 528.829979 174.926615 
L 529.970528 169.785348 
L 530.133463 192.687357 
L 530.296399 166.98102 
L 530.785205 168.850572 
L 531.436948 136.600804 
L 531.599883 164.176692 
L 531.925754 131.459536 
L 532.08869 144.079011 
L 532.251625 111.361855 
L 532.740432 136.133416 
L 533.066303 130.52476 
L 533.229239 123.046553 
L 533.392174 145.013787 
L 534.043917 144.546399 
L 534.369788 160.437589 
L 535.347401 154.361546 
L 538.931984 173.057063 
L 539.583726 218.861082 
L 540.072533 248.77391 
L 541.050146 248.77391 
L 541.376017 254.849954 
L 542.027759 310.001731 
L 543.168308 356.740526 
L 543.657115 338.512396 
L 544.9606 334.305904 
L 545.123535 334.305904 
L 545.449406 336.175456 
L 545.938213 318.414714 
L 546.264084 319.34949 
L 547.89344 267.00204 
L 548.219311 263.730325 
L 549.35986 255.317342 
L 550.663344 229.143617 
L 552.618571 207.176383 
L 552.781507 216.056754 
L 553.107378 195.024297 
L 555.877282 172.122287 
L 556.69196 200.165564 
L 557.343703 193.154745 
L 557.995445 226.806677 
L 559.6248 256.252117 
L 559.950672 267.936816 
L 560.276543 272.143308 
L 560.602414 285.23017 
L 560.765349 297.849645 
L 561.580027 310.936507 
L 562.068834 316.077774 
L 562.557641 339.447172 
L 562.883512 345.990603 
L 563.046447 346.457991 
L 563.372318 357.207913 
L 563.535254 350.664482 
L 563.69819 356.740526 
L 563.861125 353.46881 
L 564.512867 358.610077 
L 565.653416 355.338362 
L 565.816352 352.066646 
L 566.63103 350.664482 
L 566.793965 347.392767 
L 566.956901 346.457991 
L 567.282772 326.827697 
L 568.423321 237.089212 
L 568.749192 228.208841 
L 569.726806 243.165255 
L 571.03029 234.752272 
L 571.193226 255.317342 
L 571.356161 242.230479 
L 571.519097 252.980402 
L 572.659646 263.262937 
L 572.822581 258.589057 
L 573.474324 260.925997 
L 574.126066 260.458609 
L 574.614872 238.958764 
L 574.940744 232.415332 
L 575.42955 212.785039 
L 575.918357 224.937125 
L 576.407164 193.622133 
L 576.570099 196.893849 
L 576.89597 206.241607 
L 577.384777 199.698176 
L 577.710648 168.850572 
L 578.199455 173.991839 
L 578.362391 171.6549 
L 579.014133 151.557218 
L 579.502939 145.948563 
L 580.154682 169.31796 
L 580.317617 193.622133 
L 580.806424 199.698176 
L 581.295231 213.719815 
L 582.43578 263.730325 
L 582.761651 238.023988 
L 583.250457 261.860773 
L 585.36862 323.555981 
L 586.997975 360.479629 
L 588.627331 358.142689 
L 588.790267 368.892612 
L 591.071365 336.175456 
L 592.048978 239.893539 
L 592.537785 233.817496 
L 592.70072 220.263246 
L 592.863656 232.415332 
L 593.189527 238.958764 
L 595.144754 256.252117 
L 595.470625 250.643462 
L 597.425852 246.904359 
L 598.077594 253.44779 
L 598.403465 224.002349 
L 599.218143 219.32847 
L 599.544014 202.502504 
L 599.869885 202.969892 
L 600.195756 209.513323 
L 600.358692 202.969892 
L 601.17337 195.024297 
L 601.988047 166.046244 
L 603.128596 144.546399 
L 603.780339 177.263555 
L 603.943274 170.720124 
L 604.10621 182.87221 
L 604.269145 185.20915 
L 604.595017 203.43728 
L 604.757952 184.741762 
L 605.083823 201.10034 
L 606.387308 243.632643 
L 606.550243 242.697867 
L 608.016663 307.197403 
L 609.157212 317.01255 
L 609.320148 333.371128 
L 609.483084 332.90374 
L 609.808955 345.055827 
L 610.786568 354.403586 
L 611.43831 354.870974 
L 612.578859 360.479629 
L 614.208215 337.57762 
L 615.022893 276.817187 
L 615.837571 234.284884 
L 616.489313 238.958764 
L 617.792797 265.132488 
L 617.955733 257.186893 
L 618.44454 269.33898 
L 618.607475 263.262937 
L 618.933346 245.034807 
L 619.748024 252.045626 
L 620.073895 249.708686 
L 620.236831 255.78473 
L 621.540315 233.350108 
L 621.703251 223.067573 
L 622.029122 236.154436 
L 622.192058 235.21966 
L 622.8438 216.99153 
L 623.984349 202.035116 
L 625.287833 181.002658 
L 625.77664 144.079011 
L 626.754253 157.633261 
L 626.917189 173.057063 
L 627.405996 171.187512 
L 628.383609 195.491685 
L 628.872416 199.230788 
L 629.687094 219.32847 
L 629.850029 226.339289 
L 630.338836 238.958764 
L 630.664707 268.871592 
L 630.990578 272.610696 
L 631.153514 271.67592 
L 631.805256 304.860464 
L 632.294063 319.816878 
L 632.456998 307.197403 
L 632.619934 307.197403 
L 632.945805 329.164637 
L 633.108741 331.034189 
L 633.597547 345.990603 
L 633.923418 350.197094 
L 634.086354 346.925379 
L 634.412225 345.990603 
L 634.575161 360.012241 
L 634.738096 348.79493 
L 634.901032 353.46881 
L 636.204516 354.870974 
L 636.693323 354.403586 
L 637.508001 339.447172 
L 637.670936 339.91456 
L 637.996807 315.610386 
L 638.811485 264.197713 
L 639.463228 241.763091 
L 639.626163 221.66541 
L 640.440841 233.350108 
L 641.255519 259.523833 
L 642.396068 252.513014 
L 642.721939 265.132488 
L 643.210746 254.849954 
L 643.862488 247.839134 
L 644.025423 250.643462 
L 644.51423 246.436971 
L 644.677166 241.295703 
L 645.328908 226.806677 
L 646.143586 216.524142 
L 647.121199 194.556909 
L 649.402297 131.926924 
L 649.728168 148.285502 
L 651.031653 168.383184 
L 651.357524 171.6549 
L 653.475686 220.730634 
L 653.801557 217.458918 
L 655.267977 272.610696 
L 656.082655 310.936507 
L 656.245591 295.980093 
L 656.571462 313.740835 
L 658.037882 341.316723 
L 658.200818 341.784111 
L 658.85256 335.24068 
L 660.31898 357.207913 
L 660.807787 346.925379 
L 661.133658 337.57762 
L 662.274207 272.143308 
L 662.437142 281.023679 
L 662.600078 251.578238 
L 663.25182 249.708686 
L 663.903562 252.513014 
L 664.881176 255.317342 
L 665.207047 232.415332 
L 665.695854 255.317342 
L 666.999338 255.317342 
L 667.65108 252.513014 
L 668.139887 225.871901 
L 668.302823 247.371747 
L 669.280436 201.10034 
L 670.420985 142.676847 
L 671.398598 158.100649 
L 672.213276 165.111468 
L 672.539147 155.296321 
L 673.842632 161.372365 
L 674.168503 145.481175 
L 674.65731 157.633261 
L 675.634923 168.383184 
L 676.938408 195.959073 
L 677.264279 210.915487 
L 678.567763 218.393694 
L 679.219506 242.697867 
L 679.708312 251.11085 
L 681.500603 308.599567 
L 681.98941 280.556291 
L 682.804088 324.958145 
L 683.292895 341.784111 
L 683.781701 350.664482 
L 684.596379 345.055827 
L 684.759315 353.936198 
L 685.573993 330.566801 
L 685.736928 333.838516 
L 686.225735 319.816878 
L 686.714542 312.338671 
L 687.203348 299.719196 
L 687.692155 298.317032 
L 688.180962 290.371437 
L 688.506833 270.741144 
L 688.832704 266.067264 
L 689.484446 267.469428 
L 690.136188 255.78473 
L 690.299124 260.458609 
L 690.46206 247.371747 
L 690.787931 249.241298 
L 691.276737 223.534961 
L 692.091415 226.806677 
L 692.417286 246.436971 
L 696.164804 174.459227 
L 697.468289 170.720124 
L 697.631224 174.459227 
L 697.79416 186.611314 
L 698.120031 173.524451 
L 698.608838 189.883029 
L 699.26058 188.480866 
L 699.423516 208.578547 
L 701.052871 222.132798 
L 701.215807 235.21966 
L 702.519291 250.176074 
L 704.800389 301.588748 
L 705.289196 310.001731 
L 705.452132 303.925688 
L 706.918552 351.599258 
L 708.384972 358.610077 
L 709.19965 350.664482 
L 709.362585 351.13187 
L 710.014327 351.599258 
L 710.177263 345.055827 
L 711.480748 334.773292 
L 711.643683 331.501577 
L 713.59891 319.816878 
L 713.761845 316.545162 
L 714.250652 299.719196 
L 714.576523 295.045317 
L 714.902394 292.708377 
L 715.06533 287.099722 
L 715.717072 278.686739 
L 716.205879 275.415023 
L 716.694686 263.730325 
L 716.857621 265.599876 
L 717.020557 281.491066 
L 717.183492 269.33898 
L 717.672299 265.132488 
L 717.99817 279.154127 
L 718.324041 252.513014 
L 718.975784 266.067264 
L 719.301655 261.393385 
L 719.46459 274.947635 
L 721.419817 278.219351 
L 721.745688 263.262937 
L 722.560366 262.795549 
L 723.049173 285.697558 
L 723.537979 267.00204 
L 723.86385 259.991221 
L 724.026786 291.306213 
L 724.352657 277.284575 
L 724.515593 276.817187 
L 724.841464 280.556291 
L 725.167335 307.197403 
L 725.656142 303.4583 
L 725.819077 305.327852 
L 726.144948 323.088594 
L 726.307884 321.68643 
L 726.959626 333.838516 
L 727.122562 339.91456 
L 727.93724 344.588439 
L 728.100175 352.534034 
L 728.426046 353.001422 
L 729.40366 354.870974 
L 731.684758 353.936198 
L 732.988242 339.91456 
L 733.151178 336.175456 
L 735.106405 314.675611 
L 736.246953 306.262628 
L 736.898696 311.403895 
L 737.876309 282.89323 
L 738.039245 297.849645 
L 738.20218 266.067264 
L 738.528051 284.295394 
L 738.853923 274.012859 
L 739.016858 280.088903 
L 739.6686 262.795549 
L 740.157407 252.980402 
L 740.320343 269.33898 
L 740.483278 267.00204 
L 740.646214 258.589057 
L 740.972085 274.480247 
L 741.460892 272.143308 
L 741.623827 266.534652 
L 742.275569 253.915178 
L 743.253183 267.936816 
L 743.741989 268.404204 
L 744.230796 281.023679 
L 745.20841 279.154127 
L 745.534281 281.023679 
L 746.186023 269.33898 
L 746.511894 310.469119 
L 747.000701 309.534343 
L 747.163636 323.555981 
L 747.163636 323.555981 
" clip-path="url(#pd610a1af96)" style="fill: none; stroke: #ff0000; stroke-width: 1.5; stroke-linecap: square"/>
   </g>
   <g id="line2d_32">
    <path d="M 138.436364 241.151338 
L 747.163636 259.126575 
L 747.163636 259.126575 
" clip-path="url(#pd610a1af96)" style="fill: none; stroke: #0000ff; stroke-width: 1.5; stroke-linecap: square"/>
   </g>
   <g id="patch_3">
    <path d="M 108 384.48 
L 108 51.84 
" style="fill: none; stroke: #000000; stroke-width: 0.8; stroke-linejoin: miter; stroke-linecap: square"/>
   </g>
   <g id="patch_4">
    <path d="M 777.6 384.48 
L 777.6 51.84 
" style="fill: none; stroke: #000000; stroke-width: 0.8; stroke-linejoin: miter; stroke-linecap: square"/>
   </g>
   <g id="patch_5">
    <path d="M 108 384.48 
L 777.6 384.48 
" style="fill: none; stroke: #000000; stroke-width: 0.8; stroke-linejoin: miter; stroke-linecap: square"/>
   </g>
   <g id="patch_6">
    <path d="M 108 51.84 
L 777.6 51.84 
" style="fill: none; stroke: #000000; stroke-width: 0.8; stroke-linejoin: miter; stroke-linecap: square"/>
   </g>
   <g id="text_18">
    <!-- Actual vs Predicted Traffic Data -->
    <g transform="translate(349.095 45.84) scale(0.12 -0.12)">
     <defs>
      <path id="DejaVuSans-41" d="M 2188 4044 
L 1331 1722 
L 3047 1722 
L 2188 4044 
z
M 1831 4666 
L 2547 4666 
L 4325 0 
L 3669 0 
L 3244 1197 
L 1141 1197 
L 716 0 
L 50 0 
L 1831 4666 
z
" transform="scale(0.015625)"/>
      <path id="DejaVuSans-63" d="M 3122 3366 
L 3122 2828 
Q 2878 2963 2633 3030 
Q 2388 3097 2138 3097 
Q 1578 3097 1268 2742 
Q 959 2388 959 1747 
Q 959 1106 1268 751 
Q 1578 397 2138 397 
Q 2388 397 2633 464 
Q 2878 531 3122 666 
L 3122 134 
Q 2881 22 2623 -34 
Q 2366 -91 2075 -91 
Q 1284 -91 818 406 
Q 353 903 353 1747 
Q 353 2603 823 3093 
Q 1294 3584 2113 3584 
Q 2378 3584 2631 3529 
Q 2884 3475 3122 3366 
z
" transform="scale(0.015625)"/>
      <path id="DejaVuSans-74" d="M 1172 4494 
L 1172 3500 
L 2356 3500 
L 2356 3053 
L 1172 3053 
L 1172 1153 
Q 1172 725 1289 603 
Q 1406 481 1766 481 
L 2356 481 
L 2356 0 
L 1766 0 
Q 1100 0 847 248 
Q 594 497 594 1153 
L 594 3053 
L 172 3053 
L 172 3500 
L 594 3500 
L 594 4494 
L 1172 4494 
z
" transform="scale(0.015625)"/>
      <path id="DejaVuSans-61" d="M 2194 1759 
Q 1497 1759 1228 1600 
Q 959 1441 959 1056 
Q 959 750 1161 570 
Q 1363 391 1709 391 
Q 2188 391 2477 730 
Q 2766 1069 2766 1631 
L 2766 1759 
L 2194 1759 
z
M 3341 1997 
L 3341 0 
L 2766 0 
L 2766 531 
Q 2569 213 2275 61 
Q 1981 -91 1556 -91 
Q 1019 -91 701 211 
Q 384 513 384 1019 
Q 384 1609 779 1909 
Q 1175 2209 1959 2209 
L 2766 2209 
L 2766 2266 
Q 2766 2663 2505 2880 
Q 2244 3097 1772 3097 
Q 1472 3097 1187 3025 
Q 903 2953 641 2809 
L 641 3341 
Q 956 3463 1253 3523 
Q 1550 3584 1831 3584 
Q 2591 3584 2966 3190 
Q 3341 2797 3341 1997 
z
" transform="scale(0.015625)"/>
      <path id="DejaVuSans-6c" d="M 603 4863 
L 1178 4863 
L 1178 0 
L 603 0 
L 603 4863 
z
" transform="scale(0.015625)"/>
      <path id="DejaVuSans-76" d="M 191 3500 
L 800 3500 
L 1894 563 
L 2988 3500 
L 3597 3500 
L 2284 0 
L 1503 0 
L 191 3500 
z
" transform="scale(0.015625)"/>
      <path id="DejaVuSans-50" d="M 1259 4147 
L 1259 2394 
L 2053 2394 
Q 2494 2394 2734 2622 
Q 2975 2850 2975 3272 
Q 2975 3691 2734 3919 
Q 2494 4147 2053 4147 
L 1259 4147 
z
M 628 4666 
L 2053 4666 
Q 2838 4666 3239 4311 
Q 3641 3956 3641 3272 
Q 3641 2581 3239 2228 
Q 2838 1875 2053 1875 
L 1259 1875 
L 1259 0 
L 628 0 
L 628 4666 
z
" transform="scale(0.015625)"/>
      <path id="DejaVuSans-64" d="M 2906 2969 
L 2906 4863 
L 3481 4863 
L 3481 0 
L 2906 0 
L 2906 525 
Q 2725 213 2448 61 
Q 2172 -91 1784 -91 
Q 1150 -91 751 415 
Q 353 922 353 1747 
Q 353 2572 751 3078 
Q 1150 3584 1784 3584 
Q 2172 3584 2448 3432 
Q 2725 3281 2906 2969 
z
M 947 1747 
Q 947 1113 1208 752 
Q 1469 391 1925 391 
Q 2381 391 2643 752 
Q 2906 1113 2906 1747 
Q 2906 2381 2643 2742 
Q 2381 3103 1925 3103 
Q 1469 3103 1208 2742 
Q 947 2381 947 1747 
z
" transform="scale(0.015625)"/>
      <path id="DejaVuSans-44" d="M 1259 4147 
L 1259 519 
L 2022 519 
Q 2988 519 3436 956 
Q 3884 1394 3884 2338 
Q 3884 3275 3436 3711 
Q 2988 4147 2022 4147 
L 1259 4147 
z
M 628 4666 
L 1925 4666 
Q 3281 4666 3915 4102 
Q 4550 3538 4550 2338 
Q 4550 1131 3912 565 
Q 3275 0 1925 0 
L 628 0 
L 628 4666 
z
" transform="scale(0.015625)"/>
     </defs>
     <use xlink:href="#DejaVuSans-41"/>
     <use xlink:href="#DejaVuSans-63" x="66.658203"/>
     <use xlink:href="#DejaVuSans-74" x="121.638672"/>
     <use xlink:href="#DejaVuSans-75" x="160.847656"/>
     <use xlink:href="#DejaVuSans-61" x="224.226562"/>
     <use xlink:href="#DejaVuSans-6c" x="285.505859"/>
     <use xlink:href="#DejaVuSans-20" x="313.289062"/>
     <use xlink:href="#DejaVuSans-76" x="345.076172"/>
     <use xlink:href="#DejaVuSans-73" x="404.255859"/>
     <use xlink:href="#DejaVuSans-20" x="456.355469"/>
     <use xlink:href="#DejaVuSans-50" x="488.142578"/>
     <use xlink:href="#DejaVuSans-72" x="546.695312"/>
     <use xlink:href="#DejaVuSans-65" x="585.558594"/>
     <use xlink:href="#DejaVuSans-64" x="647.082031"/>
     <use xlink:href="#DejaVuSans-69" x="710.558594"/>
     <use xlink:href="#DejaVuSans-63" x="738.341797"/>
     <use xlink:href="#DejaVuSans-74" x="793.322266"/>
     <use xlink:href="#DejaVuSans-65" x="832.53125"/>
     <use xlink:href="#DejaVuSans-64" x="894.054688"/>
     <use xlink:href="#DejaVuSans-20" x="957.53125"/>
     <use xlink:href="#DejaVuSans-54" x="989.318359"/>
     <use xlink:href="#DejaVuSans-72" x="1035.652344"/>
     <use xlink:href="#DejaVuSans-61" x="1076.765625"/>
     <use xlink:href="#DejaVuSans-66" x="1138.044922"/>
     <use xlink:href="#DejaVuSans-66" x="1173.25"/>
     <use xlink:href="#DejaVuSans-69" x="1208.455078"/>
     <use xlink:href="#DejaVuSans-63" x="1236.238281"/>
     <use xlink:href="#DejaVuSans-20" x="1291.21875"/>
     <use xlink:href="#DejaVuSans-44" x="1323.005859"/>
     <use xlink:href="#DejaVuSans-61" x="1400.007812"/>
     <use xlink:href="#DejaVuSans-74" x="1461.287109"/>
     <use xlink:href="#DejaVuSans-61" x="1500.496094"/>
    </g>
   </g>
   <g id="legend_1">
    <g id="patch_7">
     <path d="M 691.659375 89.19625 
L 770.6 89.19625 
Q 772.6 89.19625 772.6 87.19625 
L 772.6 58.84 
Q 772.6 56.84 770.6 56.84 
L 691.659375 56.84 
Q 689.659375 56.84 689.659375 58.84 
L 689.659375 87.19625 
Q 689.659375 89.19625 691.659375 89.19625 
z
" style="fill: #ffffff; opacity: 0.8; stroke: #cccccc; stroke-linejoin: miter"/>
    </g>
    <g id="line2d_33">
     <path d="M 693.659375 64.938437 
L 703.659375 64.938437 
L 713.659375 64.938437 
" style="fill: none; stroke: #ff0000; stroke-width: 1.5; stroke-linecap: square"/>
    </g>
    <g id="text_19">
     <!-- Actual -->
     <g transform="translate(721.659375 68.438437) scale(0.1 -0.1)">
      <use xlink:href="#DejaVuSans-41"/>
      <use xlink:href="#DejaVuSans-63" x="66.658203"/>
      <use xlink:href="#DejaVuSans-74" x="121.638672"/>
      <use xlink:href="#DejaVuSans-75" x="160.847656"/>
      <use xlink:href="#DejaVuSans-61" x="224.226562"/>
      <use xlink:href="#DejaVuSans-6c" x="285.505859"/>
     </g>
    </g>
    <g id="line2d_34">
     <path d="M 693.659375 79.616562 
L 703.659375 79.616562 
L 713.659375 79.616562 
" style="fill: none; stroke: #0000ff; stroke-width: 1.5; stroke-linecap: square"/>
    </g>
    <g id="text_20">
     <!-- Predicted -->
     <g transform="translate(721.659375 83.116562) scale(0.1 -0.1)">
      <use xlink:href="#DejaVuSans-50"/>
      <use xlink:href="#DejaVuSans-72" x="58.552734"/>
      <use xlink:href="#DejaVuSans-65" x="97.416016"/>
      <use xlink:href="#DejaVuSans-64" x="158.939453"/>
      <use xlink:href="#DejaVuSans-69" x="222.416016"/>
      <use xlink:href="#DejaVuSans-63" x="250.199219"/>
      <use xlink:href="#DejaVuSans-74" x="305.179688"/>
      <use xlink:href="#DejaVuSans-65" x="344.388672"/>
      <use xlink:href="#DejaVuSans-64" x="405.912109"/>
     </g>
    </g>
   </g>
  </g>
 </g>
 <defs>
  <clipPath id="pd610a1af96">
   <rect x="108" y="51.84" width="669.6" height="332.64"/>
  </clipPath>
 </defs>
</svg>
